<?xml version='1.0' encoding='UTF-8'?>
<svg xmlns="http://www.w3.org/2000/svg" width="939.792" height="294.148" viewBox="0 0 939.792 294.148" role="img" aria-labelledby="title">
  <title id="title">Metriq PRISM full-name lockup - light placement</title>
  <metadata>Metriq PRISM Brand Kit v1.1 - Metriq-endorsed PRISM laboratory identity - 16 July 2026</metadata>
  <defs>
    <clipPath id="plf-clip">
      <path d="M 12.65625,324 H 60.117187 V 260.45508 H 92.8125 c 45.4834,0 74.22363,-25.70801 74.22363,-66.44531 0,-40.73731 -28.47656,-66.44532 -73.959958,-66.44532 H 12.65625 Z M 60.117187,221.03613 v -54.18457 h 29.663086 c 18.984377,0 30.981447,10.41504 30.981447,27.15821 0,16.61132 -11.99707,27.02636 -30.981447,27.02636 z M 179.22949,324 h 47.46094 v -65.25879 h 30.58594 L 289.3125,324 h 50.09766 l -37.70508,-74.88281 c 20.5664,-10.67871 32.56347,-29.92676 32.56347,-55.10742 0,-40.73731 -28.60839,-66.44532 -74.09179,-66.44532 h -80.94727 z m 47.46094,-102.56836 v -54.97559 h 30.19043 c 19.11621,0 30.98144,10.81055 30.98144,27.55372 0,16.61132 -11.86523,27.42187 -30.8496,27.42187 z M 398.27344,127.56445 H 350.8125 V 324 h 47.46094 z m 97.49121,199.59961 c 50.625,0 80.68359,-23.33496 80.68359,-62.88574 0,-30.32227 -18.85254,-47.59277 -62.3584,-56.29395 l -17.2705,-3.42773 c -22.41211,-4.61426 -31.77247,-10.54687 -31.77247,-21.22559 0,-12.26074 12.52442,-20.83007 30.45411,-20.83007 18.7207,0 31.24511,10.01953 32.56347,26.23535 h 43.90137 c -1.18652,-40.20996 -30.05859,-64.33594 -77.12402,-64.33594 -46.14258,0 -77.25586,24.65332 -77.25586,61.17188 0,28.60839 19.64355,47.59277 58.00781,55.50293 l 20.1709,4.08691 c 23.59863,4.87793 33.75,11.33789 33.75,22.54394 0,12.91993 -13.31543,21.35743 -33.35449,21.35743 -22.67579,0 -36.51856,-11.07422 -37.17774,-29.92676 H 413.7627 c 0,43.37402 29.66308,68.02734 82.00195,68.02734 z" transform="translate(-12.6562 -124.4000)"/>
      <path d="M 150.6898 74.8052 L 150.6898 197.9853 L 198.9854 197.9713 L 302.1903 77.1864 L 302.1903 198.0000 L 352.0000 198.0000 L 352.0000 0.0140 L 305.4815 0.0372 L 200.4995 122.4241 L 200.4995 0.0000 L 154.8727 0.0000 L 49.8097 123.6143 L 49.8097 0.0000 L 0.0000 0.0000 L 0.0000 197.9853 L 47.4849 197.9853 Z M 176.0000 45.0000 L 195.0000 114.0000 L 157.0000 114.0000 Z" transform="translate(587.7920 2.3820)" fill-rule="evenodd" clip-rule="evenodd"/>
    </clipPath>
    <linearGradient id="plf-base" gradientUnits="userSpaceOnUse" x1="0" y1="8" x2="939.792" y2="158.156">
      <stop offset="0" stop-color="#C6F5DD"/>
      <stop offset="0.18" stop-color="#65E3AB"/>
      <stop offset="0.37" stop-color="#13BF7C"/>
      <stop offset="0.54" stop-color="#06A269"/>
      <stop offset="0.72" stop-color="#045B5D"/>
      <stop offset="0.86" stop-color="#0D5FA4"/>
      <stop offset="1" stop-color="#1972DC"/>
    </linearGradient>
    <linearGradient id="plf-vertical" gradientUnits="userSpaceOnUse" x1="0" y1="0" x2="0" y2="202.764">
      <stop offset="0" stop-color="#FFFFFF" stop-opacity="0.20"/>
      <stop offset="0.43" stop-color="#FFFFFF" stop-opacity="0"/>
      <stop offset="1" stop-color="#001F20" stop-opacity="0.10"/>
    </linearGradient>
    <linearGradient id="plf-shine" x1="0" y1="0" x2="1" y2="0">
      <stop offset="0" stop-color="#FFFFFF" stop-opacity="0"/>
      <stop offset="0.43" stop-color="#FFFFFF" stop-opacity="0"/>
      <stop offset="0.50" stop-color="#FFFFFF" stop-opacity="0.28"/>
      <stop offset="0.58" stop-color="#FFFFFF" stop-opacity="0"/>
      <stop offset="1" stop-color="#FFFFFF" stop-opacity="0"/>
    </linearGradient>
    <linearGradient id="plf-shade" x1="0" y1="0" x2="1" y2="0">
      <stop offset="0" stop-color="#003E45" stop-opacity="0"/>
      <stop offset="0.45" stop-color="#003E45" stop-opacity="0"/>
      <stop offset="0.52" stop-color="#003E45" stop-opacity="0.16"/>
      <stop offset="0.60" stop-color="#003E45" stop-opacity="0"/>
      <stop offset="1" stop-color="#003E45" stop-opacity="0"/>
    </linearGradient>
  </defs>
  <g clip-path="url(#plf-clip)">
    <rect width="939.792" height="202.764" fill="url(#plf-base)"/>
    <rect width="939.792" height="202.764" fill="url(#plf-vertical)"/>
    <rect x="-169.163" y="-385.252" width="582.671" height="973.267" fill="url(#plf-shine)" transform="rotate(-31 169.163 101.382)"/>
    <rect x="140.969" y="-385.252" width="582.671" height="973.267" fill="url(#plf-shade)" transform="rotate(-31 451.1 101.382)"/>
    <rect x="657.854" y="-344.699" width="422.906" height="871.885" fill="url(#plf-shine)" opacity="0.55" transform="rotate(-28 845.813 101.382)"/>
  </g>
  <path d="M 1.8310547,30 H 5.090332 v -6.152344 h 3.491211 c 4.199219,0 6.45752,-2.526855 6.45752,-6.018066 0,-3.466797 -2.22168,-6.018067 -6.4086919,-6.018067 H 1.8310547 Z M 5.090332,21.162109 v -6.616211 h 3.0395508 c 2.4902342,0 3.5766602,1.342774 3.5766602,3.283692 0,1.940918 -1.086426,3.332519 -3.5522461,3.332519 z M 19.456543,30 h 3.259277 v -6.677246 h 3.393555 L 29.686035,30 h 3.649902 l -3.942871,-7.226563 c 2.148438,-0.854492 3.271485,-2.673339 3.271485,-5.13916 0,-3.466797 -2.22168,-5.822754 -6.408692,-5.822754 h -6.799316 z m 3.259277,-9.375 v -6.079102 h 3.039551 c 2.478027,0 3.57666,1.147461 3.57666,3.088379 0,1.928711 -1.098633,2.990723 -3.552246,2.990723 z m 22.337403,9.619141 c 4.760742,0 8.337402,-3.45459 8.337402,-9.326172 0,-5.883789 -3.57666,-9.350586 -8.337402,-9.350586 -4.77295,0 -8.361817,3.466797 -8.361817,9.350586 0,5.859375 3.588867,9.326172 8.361817,9.326172 z m 0,-2.917481 c -2.978516,0 -5.090332,-2.270508 -5.090332,-6.408691 0,-4.162598 2.111816,-6.433106 5.090332,-6.433106 2.954101,0 5.053711,2.258301 5.053711,6.433106 0,4.15039 -2.09961,6.408691 -5.053711,6.408691 z m 20.774902,2.917481 c 4.492187,0 7.714844,-2.893067 7.714844,-7.56836 v -2.185058 h -7.36084 v 2.563476 h 4.199219 c -0.06104,2.612305 -1.806641,4.272461 -4.541016,4.272461 -3.063965,0 -5.163574,-2.307129 -5.163574,-6.420898 0,-4.125977 2.148437,-6.420899 5.090332,-6.420899 2.209472,0 3.69873,1.196289 4.284668,3.137207 h 3.332519 c -0.561523,-3.57666 -3.649902,-6.054687 -7.653808,-6.054687 -4.760742,0 -8.325196,3.503418 -8.325196,9.362793 0,5.749511 3.405762,9.313965 8.422852,9.313965 z M 78.20459,30 h 3.259277 v -6.677246 h 3.393555 L 88.434082,30 h 3.649902 l -3.942871,-7.226563 c 2.148438,-0.854492 3.271485,-2.673339 3.271485,-5.13916 0,-3.466797 -2.22168,-5.822754 -6.408692,-5.822754 H 78.20459 Z m 3.259277,-9.375 v -6.079102 h 3.039551 c 2.478027,0 3.57666,1.147461 3.57666,3.088379 0,1.928711 -1.098633,2.990723 -3.552246,2.990723 z M 94.79248,30 h 3.564454 l 1.489257,-4.504395 h 6.799319 L 108.1958,30 h 3.57666 l -6.49414,-18.188477 h -4.13818 z m 5.92041,-7.128906 0.76904,-2.319336 c 0.50049,-1.623535 1.04981,-3.66211 1.69678,-6.201172 0.67139,2.514648 1.24512,4.528809 1.78223,6.201172 l 0.79345,2.319336 z M 115.70166,30 h 3.19824 v -9.179688 c 0,-1.379394 -0.0732,-3.894042 -0.12207,-5.957031 0.67139,2.34375 1.40381,4.772949 1.83106,5.957031 L 124.01465,30 h 2.77099 l 3.35694,-9.179688 c 0.42724,-1.220703 1.19629,-3.723144 1.81885,-6.054687 -0.0366,2.160645 -0.10987,4.699707 -0.10987,6.054687 V 30 h 3.24707 V 11.811523 h -4.91943 l -3.41797,9.387207 c -0.354,1.086426 -0.91553,3.33252 -1.34277,5.126954 -0.41504,-1.818848 -0.98877,-4.052735 -1.35498,-5.126954 l -3.45459,-9.387207 h -4.90723 z m 32.35791,0 h 3.25928 v -7.275391 h 7.56836 v -2.709961 h -7.56836 v -5.456543 h 8.38623 v -2.746582 h -11.64551 z m 23.98535,0.244141 c 4.76074,0 8.3374,-3.45459 8.3374,-9.326172 0,-5.883789 -3.57666,-9.350586 -8.3374,-9.350586 -4.77295,0 -8.36181,3.466797 -8.36181,9.350586 0,5.859375 3.58886,9.326172 8.36181,9.326172 z m 0,-2.917481 c -2.97851,0 -5.09033,-2.270508 -5.09033,-6.408691 0,-4.162598 2.11182,-6.433106 5.09033,-6.433106 2.9541,0 5.05371,2.258301 5.05371,6.433106 0,4.15039 -2.09961,6.408691 -5.05371,6.408691 z M 184.9707,30 h 3.25928 v -6.677246 h 3.39356 L 195.2002,30 h 3.6499 l -3.94287,-7.226563 c 2.14843,-0.854492 3.27148,-2.673339 3.27148,-5.13916 0,-3.466797 -2.22168,-5.822754 -6.40869,-5.822754 h -6.79932 z m 3.25928,-9.375 v -6.079102 h 3.03955 c 2.47803,0 3.57666,1.147461 3.57666,3.088379 0,1.928711 -1.09863,2.990723 -3.55224,2.990723 z M 210.57812,30 h 3.25928 v -6.677246 h 3.39356 L 220.80762,30 h 3.6499 l -3.94287,-7.226563 c 2.14844,-0.854492 3.27148,-2.673339 3.27148,-5.13916 0,-3.466797 -2.22168,-5.822754 -6.40869,-5.822754 h -6.79932 z m 3.25928,-9.375 v -6.079102 h 3.03955 c 2.47803,0 3.57666,1.147461 3.57666,3.088379 0,1.928711 -1.09863,2.990723 -3.55224,2.990723 z M 228.38672,30 h 11.86523 V 27.253418 H 231.646 v -5.078125 h 7.92236 V 19.465332 H 231.646 v -4.907227 h 8.55712 v -2.746582 h -11.8164 z m 23.02099,0.280762 c 4.34571,0 6.88477,-2.185059 6.88477,-5.383301 0,-3.173828 -2.64893,-4.577637 -5.34668,-5.224609 l -1.69678,-0.439454 c -1.47705,-0.366211 -3.10058,-0.976562 -3.10058,-2.502441 0,-1.379394 1.24511,-2.392578 3.2959,-2.392578 1.96533,0 3.28369,0.90332 3.44238,2.453613 h 3.16162 c -0.0854,-3.039551 -2.67334,-5.224609 -6.55518,-5.224609 -3.80859,0 -6.64062,2.148437 -6.64062,5.358887 0,2.563476 1.79443,4.101562 4.83398,4.882812 l 2.06299,0.537109 c 1.96533,0.512696 3.28369,1.11084 3.28369,2.526856 0,1.5625 -1.50146,2.624512 -3.6499,2.624512 -2.05078,0 -3.67432,-0.927735 -3.8208,-2.844239 h -3.21045 c 0.14649,3.588867 2.81982,5.627442 7.05566,5.627442 z M 262.7832,30 h 11.86524 v -2.746582 h -8.60596 v -5.078125 h 7.92236 v -2.709961 h -7.92236 v -4.907227 h 8.55713 V 11.811523 H 262.7832 Z m 15.41602,0 h 3.56445 l 1.48926,-4.504395 h 6.79932 L 291.60254,30 h 3.57666 l -6.49414,-18.188477 h -4.13819 z m 5.92041,-7.128906 0.76904,-2.319336 c 0.50049,-1.623535 1.04981,-3.66211 1.69678,-6.201172 0.67139,2.514648 1.24512,4.528809 1.78223,6.201172 l 0.79345,2.319336 z M 299.1084,30 h 3.25928 v -6.677246 h 3.39355 L 309.33789,30 h 3.6499 l -3.94287,-7.226563 c 2.14844,-0.854492 3.27149,-2.673339 3.27149,-5.13916 0,-3.466797 -2.22168,-5.822754 -6.4087,-5.822754 h -6.79931 z m 3.25928,-9.375 v -6.079102 h 3.03955 c 2.47802,0 3.57666,1.147461 3.57666,3.088379 0,1.928711 -1.09864,2.990723 -3.55225,2.990723 z m 22.30078,9.619141 c 4.29687,0 7.17773,-2.819825 7.67822,-6.298829 h -3.2959 c -0.41504,2.148438 -2.17285,3.381348 -4.3457,3.381348 -2.9541,0 -5.09033,-2.233887 -5.09033,-6.408691 0,-4.125977 2.12402,-6.433106 5.10254,-6.433106 2.17285,0 3.93066,1.23291 4.33349,3.381348 h 3.28369 c -0.57373,-3.979492 -3.67431,-6.298828 -7.66601,-6.298828 -4.74854,0 -8.3252,3.466797 -8.3252,9.350586 0,5.859375 3.54004,9.326172 8.3252,9.326172 z M 336.8374,30 h 3.25928 v -7.922363 h 8.45947 V 30 h 3.25928 V 11.811523 h -3.25928 v 7.519532 h -8.45947 v -7.519532 h -3.25928 z m 31.19824,-18.188477 h -3.25927 V 30 h 3.25927 z M 373.19775,30 h 3.32032 v -9.033203 c 0,-1.013184 -0.10987,-2.929688 -0.23194,-5.175781 1.22071,2.368164 1.9043,3.662109 2.85645,5.187988 L 384.81885,30 h 3.69873 V 11.811523 h -3.30811 v 9.545899 c 0,1.11084 0.0732,2.954101 0.19532,4.711914 -0.79346,-1.818848 -1.58692,-3.198242 -2.23389,-4.23584 l -6.28662,-10.021973 h -3.68653 z m 31.54004,-18.188477 h -3.25927 V 30 h 3.25927 z M 409.8999,30 h 3.32031 v -9.033203 c 0,-1.013184 -0.10986,-2.929688 -0.23193,-5.175781 1.2207,2.368164 1.9043,3.662109 2.85645,5.187988 L 421.521,30 h 3.69873 V 11.811523 h -3.30811 v 9.545899 c 0,1.11084 0.0732,2.954101 0.19531,4.711914 -0.79345,-1.818848 -1.58691,-3.198242 -2.23388,-4.23584 l -6.28662,-10.021973 h -3.68653 z m 19.66406,-15.441895 h 5.61524 V 30 h 3.25928 V 14.558105 h 5.60302 V 11.811523 H 429.56396 Z M 448.38574,30 h 11.86524 v -2.746582 h -8.60596 v -5.078125 h 7.92236 v -2.709961 h -7.92236 v -4.907227 h 8.55713 v -2.746582 h -11.81641 z m 16.63672,0 h 11.2915 v -2.746582 h -8.03222 V 11.811523 h -3.25928 z m 15.63574,0 h 11.29151 v -2.746582 h -8.03223 V 11.811523 h -3.25928 z m 18.89502,-18.188477 h -3.25927 V 30 h 3.25927 z m 13.01123,18.432618 c 4.49219,0 7.71485,-2.893067 7.71485,-7.56836 v -2.185058 h -7.36084 v 2.563476 h 4.19922 c -0.061,2.612305 -1.80664,4.272461 -4.54102,4.272461 -3.06396,0 -5.16357,-2.307129 -5.16357,-6.420898 0,-4.125977 2.14843,-6.420899 5.09033,-6.420899 2.20947,0 3.69873,1.196289 4.28467,3.137207 h 3.33252 c -0.56153,-3.57666 -3.64991,-6.054687 -7.65381,-6.054687 -4.76075,0 -8.3252,3.503418 -8.3252,9.362793 0,5.749511 3.40576,9.313965 8.42285,9.313965 z M 524.94092,30 h 11.86523 v -2.746582 h -8.60595 v -5.078125 h 7.92236 v -2.709961 h -7.92236 v -4.907227 h 8.55712 v -2.746582 h -11.8164 z m 16.63672,0 h 3.32031 v -9.033203 c 0,-1.013184 -0.10986,-2.929688 -0.23193,-5.175781 1.2207,2.368164 1.90429,3.662109 2.85644,5.187988 L 553.19873,30 h 3.69873 V 11.811523 h -3.3081 v 9.545899 c 0,1.11084 0.0732,2.954101 0.19531,4.711914 -0.79346,-1.818848 -1.58692,-3.198242 -2.23389,-4.23584 l -6.28662,-10.021973 h -3.68652 z M 561.2417,14.558105 h 5.61523 V 30 h 3.25928 V 14.558105 h 5.60303 V 11.811523 H 561.2417 Z m 33.00488,15.722657 c 4.34571,0 6.88477,-2.185059 6.88477,-5.383301 0,-3.173828 -2.64893,-4.577637 -5.34668,-5.224609 l -1.69678,-0.439454 c -1.47705,-0.366211 -3.10059,-0.976562 -3.10059,-2.502441 0,-1.379394 1.24512,-2.392578 3.2959,-2.392578 1.96534,0 3.28369,0.90332 3.44239,2.453613 h 3.16162 c -0.0855,-3.039551 -2.67334,-5.224609 -6.55518,-5.224609 -3.80859,0 -6.64062,2.148437 -6.64062,5.358887 0,2.563476 1.79443,4.101562 4.83398,4.882812 l 2.06299,0.537109 c 1.96533,0.512696 3.28369,1.11084 3.28369,2.526856 0,1.5625 -1.50146,2.624512 -3.6499,2.624512 -2.05078,0 -3.67432,-0.927735 -3.8208,-2.844239 h -3.21045 c 0.14648,3.588867 2.81982,5.627442 7.05566,5.627442 z M 611.11523,30 h 3.25928 v -7.043457 l 6.64063,-11.14502 h -3.78418 l -3.18604,5.737305 c -0.47607,0.866699 -0.8789,1.647949 -1.28174,2.685547 -0.40283,-1.013184 -0.80566,-1.794434 -1.30615,-2.685547 l -3.24707,-5.737305 h -3.80859 l 6.71386,11.14502 z m 20.22559,0.280762 c 4.3457,0 6.88477,-2.185059 6.88477,-5.383301 0,-3.173828 -2.64893,-4.577637 -5.34668,-5.224609 l -1.69678,-0.439454 c -1.47705,-0.366211 -3.10059,-0.976562 -3.10059,-2.502441 0,-1.379394 1.24512,-2.392578 3.2959,-2.392578 1.96533,0 3.28369,0.90332 3.44238,2.453613 h 3.16163 c -0.0855,-3.039551 -2.67334,-5.224609 -6.55518,-5.224609 -3.80859,0 -6.64063,2.148437 -6.64063,5.358887 0,2.563476 1.79444,4.101562 4.83399,4.882812 l 2.06299,0.537109 c 1.96533,0.512696 3.28369,1.11084 3.28369,2.526856 0,1.5625 -1.50147,2.624512 -3.6499,2.624512 -2.05079,0 -3.67432,-0.927735 -3.8208,-2.844239 h -3.21045 c 0.14648,3.588867 2.81982,5.627442 7.05566,5.627442 z m 10.38672,-15.722657 h 5.61523 V 30 h 3.25928 V 14.558105 h 5.60303 V 11.811523 H 641.72754 Z M 660.54932,30 h 11.86523 v -2.746582 h -8.60596 v -5.078125 h 7.92237 v -2.709961 h -7.92237 v -4.907227 h 8.55713 v -2.746582 h -11.8164 z m 16.63672,0 h 3.19824 v -9.179688 c 0,-1.379394 -0.0732,-3.894042 -0.12207,-5.957031 0.67138,2.34375 1.40381,4.772949 1.83105,5.957031 L 685.49902,30 h 2.771 l 3.35693,-9.179688 c 0.42725,-1.220703 1.19629,-3.723144 1.81885,-6.054687 -0.0366,2.160645 -0.10986,4.699707 -0.10986,6.054687 V 30 h 3.24707 V 11.811523 h -4.91944 l -3.41796,9.387207 c -0.35401,1.086426 -0.91553,3.33252 -1.34278,5.126954 -0.41504,-1.818848 -0.98877,-4.052735 -1.35498,-5.126954 l -3.45459,-9.387207 h -4.90722 z m 30.94335,0.280762 c 4.34571,0 6.88477,-2.185059 6.88477,-5.383301 0,-3.173828 -2.64893,-4.577637 -5.34668,-5.224609 l -1.69678,-0.439454 c -1.47705,-0.366211 -3.10058,-0.976562 -3.10058,-2.502441 0,-1.379394 1.24511,-2.392578 3.2959,-2.392578 1.96533,0 3.28369,0.90332 3.44238,2.453613 h 3.16162 c -0.0855,-3.039551 -2.67334,-5.224609 -6.55518,-5.224609 -3.80859,0 -6.64062,2.148437 -6.64062,5.358887 0,2.563476 1.79443,4.101562 4.83398,4.882812 l 2.06299,0.537109 c 1.96533,0.512696 3.28369,1.11084 3.28369,2.526856 0,1.5625 -1.50146,2.624512 -3.6499,2.624512 -2.05078,0 -3.67432,-0.927735 -3.8208,-2.844239 h -3.21045 c 0.14648,3.588867 2.81982,5.627442 7.05566,5.627442 z M 726.08301,30 h 3.56445 l 1.48926,-4.504395 h 6.79932 L 739.48633,30 h 3.57666 l -6.49414,-18.188477 h -4.13819 z m 5.92041,-7.128906 0.76904,-2.319336 c 0.50049,-1.623535 1.04981,-3.66211 1.69678,-6.201172 0.67138,2.514648 1.24512,4.528809 1.78222,6.201172 l 0.79346,2.319336 z M 746.99219,30 h 3.32031 v -9.033203 c 0,-1.013184 -0.10986,-2.929688 -0.23193,-5.175781 1.2207,2.368164 1.90429,3.662109 2.85644,5.187988 L 758.61328,30 h 3.69873 V 11.811523 h -3.3081 v 9.545899 c 0,1.11084 0.0732,2.954101 0.19531,4.711914 -0.79346,-1.818848 -1.58692,-3.198242 -2.23389,-4.23584 l -6.28662,-10.021973 h -3.68652 z m 26.63427,0 c 5.542,0 8.80127,-3.430176 8.80127,-9.118652 0,-5.651856 -3.25927,-9.069825 -8.67919,-9.069825 h -6.27442 V 30 Z M 770.7334,27.180176 V 14.631348 h 2.81982 c 3.72315,0 5.66407,2.087402 5.66407,6.25 0,4.199218 -1.94092,6.298828 -5.74952,6.298828 z M 794.82715,30 h 3.19824 v -9.179688 c 0,-1.379394 -0.0732,-3.894042 -0.12207,-5.957031 0.67139,2.34375 1.40381,4.772949 1.83105,5.957031 L 803.14014,30 h 2.77099 l 3.35694,-9.179688 c 0.42724,-1.220703 1.19629,-3.723144 1.81884,-6.054687 -0.0366,2.160645 -0.10986,4.699707 -0.10986,6.054687 V 30 h 3.24707 V 11.811523 h -4.91943 l -3.41797,9.387207 c -0.35401,1.086426 -0.91553,3.33252 -1.34277,5.126954 -0.41504,-1.818848 -0.98877,-4.052735 -1.35499,-5.126954 l -3.45459,-9.387207 h -4.90722 z m 24.55908,0 h 11.86523 v -2.746582 h -8.60595 v -5.078125 h 7.92236 v -2.709961 h -7.92236 v -4.907227 h 8.55713 v -2.746582 h -11.81641 z m 15.81885,-15.441895 h 5.61523 V 30 h 3.25928 V 14.558105 h 5.60303 V 11.811523 H 835.20508 Z M 854.02686,30 h 3.25927 v -7.922363 h 8.45948 V 30 h 3.25927 V 11.811523 h -3.25927 v 7.519532 h -8.45948 v -7.519532 h -3.25927 z m 27.92822,0.244141 c 4.76074,0 8.3374,-3.45459 8.3374,-9.326172 0,-5.883789 -3.57666,-9.350586 -8.3374,-9.350586 -4.77295,0 -8.36182,3.466797 -8.36182,9.350586 0,5.859375 3.58887,9.326172 8.36182,9.326172 z m 0,-2.917481 c -2.97852,0 -5.09033,-2.270508 -5.09033,-6.408691 0,-4.162598 2.11181,-6.433106 5.09033,-6.433106 2.9541,0 5.05371,2.258301 5.05371,6.433106 0,4.15039 -2.09961,6.408691 -5.05371,6.408691 z M 901.0332,30 c 5.542,0 8.80127,-3.430176 8.80127,-9.118652 0,-5.651856 -3.25927,-9.069825 -8.6792,-9.069825 h -6.27441 V 30 Z m -2.89306,-2.819824 V 14.631348 h 2.81982 c 3.72315,0 5.66406,2.087402 5.66406,6.25 0,4.199218 -1.94091,6.298828 -5.74951,6.298828 z m 22.6792,3.100586 c 4.3457,0 6.88476,-2.185059 6.88476,-5.383301 0,-3.173828 -2.64892,-4.577637 -5.34668,-5.224609 l -1.69678,-0.439454 c -1.47705,-0.366211 -3.10058,-0.976562 -3.10058,-2.502441 0,-1.379394 1.24512,-2.392578 3.2959,-2.392578 1.96533,0 3.28369,0.90332 3.44238,2.453613 h 3.16162 c -0.0855,-3.039551 -2.67334,-5.224609 -6.55517,-5.224609 -3.8086,0 -6.64063,2.148437 -6.64063,5.358887 0,2.563476 1.79443,4.101562 4.83398,4.882812 l 2.06299,0.537109 c 1.96533,0.512696 3.28369,1.11084 3.28369,2.526856 0,1.5625 -1.50146,2.624512 -3.6499,2.624512 -2.05078,0 -3.67431,-0.927735 -3.8208,-2.844239 h -3.21045 c 0.14649,3.588867 2.81983,5.627442 7.05567,5.627442 z" transform="translate(-1.8311 224.1966)" fill="#045B5D"/>
  <path d="M 0.54785156,26.4 H 3.2011719 L 4.6298828,22.17832 H 10.924805 L 12.396484,26.4 h 2.653321 L 9.2490234,10.39414 H 6.2412109 Z M 5.328125,20.137304 6.2197266,17.494726 c 0.3974609,-1.224609 0.8916015,-2.889648 1.5146484,-5.177734 0.6337891,2.266601 1.1171875,3.899414 1.546875,5.177734 l 0.923828,2.642578 z M 25.635351,26.4 h 2.449219 v -6.047852 h 3.265625 c 0.04297,0 0.09668,0 0.139648,0 L 34.733984,26.4 h 2.782227 l -3.523438,-6.466797 c 1.944336,-0.730469 2.921875,-2.363282 2.921875,-4.511719 0,-2.954102 -1.836914,-5.027344 -5.542969,-5.027344 h -5.736328 z m 2.449219,-8.142579 v -5.768554 h 3.007812 c 2.363282,0 3.340821,1.127929 3.340821,2.932617 0,1.793945 -0.977539,2.835937 -3.319336,2.835937 z M 41.090233,26.4 h 10.140625 v -2.105469 h -7.691406 v -4.930664 h 7.089843 V 17.26914 h -7.089843 v -4.769531 h 7.626953 V 10.39414 H 41.090233 Z m 19.837696,0.268554 c 3.759766,0 5.929687,-1.976562 5.929687,-4.694336 0,-2.889648 -2.567382,-3.985351 -4.608398,-4.511718 l -1.557617,-0.408204 c -1.22461,-0.322265 -2.878906,-0.891601 -2.878906,-2.40625 0,-1.353515 1.224609,-2.341796 3.168945,-2.341796 1.81543,0 3.115234,0.83789 3.276367,2.298828 h 2.384766 c -0.0752,-2.545899 -2.320313,-4.425782 -5.607422,-4.425782 -3.222656,0 -5.671875,1.836915 -5.671875,4.608399 0,2.191406 1.546875,3.53418 4.167969,4.232422 l 1.86914,0.515625 c 1.71875,0.461914 3.040039,1.009765 3.040039,2.40625 0,1.546875 -1.493164,2.578125 -3.523437,2.578125 -1.847657,0 -3.394532,-0.816406 -3.53418,-2.567383 h -2.459961 c 0.150391,2.921875 2.40625,4.71582 6.004883,4.71582 z M 70.96875,26.4 h 10.140625 v -2.105469 h -7.691406 v -4.930664 h 7.089843 V 17.26914 h -7.089843 v -4.769531 h 7.626953 V 10.39414 H 70.96875 Z m 13.241989,0 h 2.65332 l 1.428711,-4.22168 h 6.294922 L 96.059372,26.4 h 2.65332 L 92.911911,10.39414 h -3.007812 z m 4.780274,-6.262696 0.891601,-2.642578 c 0.397461,-1.224609 0.891602,-2.889648 1.514649,-5.177734 0.633789,2.266601 1.117187,3.899414 1.546875,5.177734 l 0.923828,2.642578 z M 102.23301,26.4 h 2.44922 v -6.047852 h 3.26562 c 0.043,0 0.0967,0 0.13965,0 L 111.33164,26.4 h 2.78223 l -3.52344,-6.466797 c 1.94434,-0.730469 2.92188,-2.363282 2.92188,-4.511719 0,-2.954102 -1.83692,-5.027344 -5.54297,-5.027344 h -5.73633 z m 2.44922,-8.142579 v -5.768554 h 3.00781 c 2.36328,0 3.34082,1.127929 3.34082,2.932617 0,1.793945 -0.97754,2.835937 -3.31934,2.835937 z m 19.65507,8.357422 c 3.53418,0 6.11231,-2.234375 6.60645,-5.40332 h -2.4707 c -0.40821,2.041016 -2.11622,3.168945 -4.11426,3.168945 -2.73926,0 -4.80176,-2.083984 -4.80176,-5.972656 0,-3.867187 2.05176,-5.994141 4.80176,-5.994141 1.99804,0 3.70605,1.117188 4.11426,3.158204 h 2.45996 c -0.53711,-3.394532 -3.22266,-5.392579 -6.59571,-5.392579 -4.14648,0 -7.208,3.09375 -7.208,8.228516 0,5.113281 3.05078,8.207031 7.208,8.207031 z M 135.02266,26.4 h 2.44922 v -7.132813 h 7.92773 V 26.4 h 2.45996 V 10.39414 h -2.45996 v 6.767578 h -7.92773 V 10.39414 h -2.44922 z m 24.64706,0 h 9.7002 v -2.105469 h -7.25098 V 10.39414 h -2.44922 z m 12.41484,0 h 2.65332 l 1.42872,-4.22168 h 6.29492 L 183.9332,26.4 h 2.65332 l -5.80078,-16.00586 h -3.00782 z m 4.78028,-6.262696 0.8916,-2.642578 c 0.39746,-1.224609 0.8916,-2.889648 1.51465,-5.177734 0.63379,2.266601 1.11719,3.899414 1.54687,5.177734 l 0.92383,2.642578 z M 190.10684,26.4 h 6.15528 c 3.71679,0 5.40332,-1.858399 5.40332,-4.31836 0,-2.459961 -1.7295,-3.856445 -3.33008,-3.942383 v -0.161132 c 1.48242,-0.365235 2.70703,-1.385743 2.70703,-3.383789 0,-2.363282 -1.64356,-4.200196 -5.03809,-4.200196 h -5.89746 z m 2.44922,-2.105469 v -5.081055 h 3.55566 c 1.91211,0 3.12598,1.235352 3.12598,2.75 0,1.332031 -0.92383,2.331055 -3.22265,2.331055 z m 0,-6.97168 v -4.833984 h 3.27637 c 1.90137,0 2.80371,0.999023 2.80371,2.30957 0,1.536133 -1.24609,2.524414 -2.86817,2.524414 z m 19.86992,9.291992 c 4.14648,0 7.20801,-3.09375 7.20801,-8.207031 0,-5.134766 -3.06153,-8.228516 -7.20801,-8.228516 -4.15723,0 -7.22949,3.09375 -7.22949,8.228516 0,5.113281 3.07226,8.207031 7.22949,8.207031 z m 0,-2.234375 c -2.75,0 -4.80176,-2.105468 -4.80176,-5.972656 0,-3.87793 2.05176,-5.994141 4.80176,-5.994141 2.72852,0 4.78027,2.105469 4.78027,5.994141 0,3.867188 -2.05175,5.972656 -4.78027,5.972656 z M 223.82031,26.4 h 2.44922 v -6.047852 h 3.26563 c 0.043,0 0.0967,0 0.13964,0 L 232.91895,26.4 h 2.78222 l -3.52344,-6.466797 c 1.94434,-0.730469 2.92188,-2.363282 2.92188,-4.511719 0,-2.954102 -1.83691,-5.027344 -5.54297,-5.027344 h -5.73633 z m 2.44922,-8.142579 v -5.768554 h 3.00781 c 2.36328,0 3.34082,1.127929 3.34082,2.932617 0,1.793945 -0.97754,2.835937 -3.31933,2.835937 z M 238.05058,26.4 h 2.65332 l 1.42871,-4.22168 h 6.29493 L 249.89922,26.4 h 2.65332 l -5.80079,-16.00586 h -3.00781 z m 4.78028,-6.262696 0.8916,-2.642578 c 0.39746,-1.224609 0.8916,-2.889648 1.51465,-5.177734 0.63379,2.266601 1.11718,3.899414 1.54687,5.177734 l 0.92383,2.642578 z m 10.53495,-7.637695 h 4.99512 V 26.4 h 2.45996 V 12.499609 h 4.97364 V 10.39414 h -12.42872 z m 22.37287,14.115234 c 4.14648,0 7.20801,-3.09375 7.20801,-8.207031 0,-5.134766 -3.06153,-8.228516 -7.20801,-8.228516 -4.15723,0 -7.22949,3.09375 -7.22949,8.228516 0,5.113281 3.07226,8.207031 7.22949,8.207031 z m 0,-2.234375 c -2.75,0 -4.80176,-2.105468 -4.80176,-5.972656 0,-3.87793 2.05176,-5.994141 4.80176,-5.994141 2.72851,0 4.78027,2.105469 4.78027,5.994141 0,3.867188 -2.05176,5.972656 -4.78027,5.972656 z M 287.133,26.4 h 2.44921 v -6.047852 h 3.26563 c 0.043,0 0.0967,0 0.13965,0 L 296.23163,26.4 h 2.78222 l -3.52343,-6.466797 c 1.94433,-0.730469 2.92187,-2.363282 2.92187,-4.511719 0,-2.954102 -1.83691,-5.027344 -5.54297,-5.027344 H 287.133 Z m 2.44921,-8.142579 v -5.768554 h 3.00782 c 2.36328,0 3.34082,1.127929 3.34082,2.932617 0,1.793945 -0.97754,2.835937 -3.31934,2.835937 z M 306.69141,26.4 h 2.44921 v -6.370118 l 5.87598,-9.635742 h -2.84668 l -2.97558,5.102539 c -0.47266,0.805664 -0.85938,1.525391 -1.25684,2.492188 -0.39746,-0.945313 -0.78418,-1.654297 -1.27832,-2.492188 l -3.00781,-5.102539 h -2.85742 l 5.89746,9.635742 z m 25.58163,0.214843 c 4.14649,0 7.20801,-3.09375 7.20801,-8.207031 0,-5.134766 -3.06152,-8.228516 -7.20801,-8.228516 -4.15723,0 -7.22949,3.09375 -7.22949,8.228516 0,5.113281 3.07226,8.207031 7.22949,8.207031 z m 0,-2.234375 c -2.75,0 -4.80176,-2.105468 -4.80176,-5.972656 0,-3.87793 2.05176,-5.994141 4.80176,-5.994141 2.72852,0 4.78027,2.105469 4.78027,5.994141 0,3.867188 -2.05175,5.972656 -4.78027,5.972656 z M 343.66739,26.4 h 2.44922 v -6.660157 h 6.78906 v -2.094726 h -6.78906 v -5.145508 h 7.50879 V 10.39414 h -9.95801 z m 21.23105,0 h 2.38476 v -8.615235 c 0,-1.224609 -0.0537,-3.276367 -0.0967,-4.952148 0.61231,1.976562 1.2461,3.985351 1.61133,4.952148 L 372.11719,26.4 h 2.09472 l 3.27637,-8.615235 c 0.36524,-0.999023 1.03125,-3.061523 1.60059,-5.005859 -0.0322,1.783203 -0.0859,3.824219 -0.0859,5.005859 V 26.4 h 2.43848 V 10.39414 h -3.63086 l -3.4375,9.184571 c -0.31153,0.880859 -0.81641,2.664062 -1.19239,4.092773 -0.36523,-1.460938 -0.87011,-3.233398 -1.18164,-4.092773 l -3.49121,-9.184571 h -3.60937 z m 21.27716,0 h 10.14062 v -2.105469 h -7.6914 v -4.930664 h 7.08984 V 17.26914 h -7.08984 v -4.769531 h 7.62695 V 10.39414 H 386.1756 Z m 13.66092,-13.900391 h 4.99511 V 26.4 h 2.45997 V 12.499609 h 4.97363 V 10.39414 H 399.83652 Z M 416.2045,26.4 h 2.44922 v -6.047852 h 3.26562 c 0.043,0 0.0967,0 0.13965,0 L 425.30313,26.4 h 2.78223 l -3.52344,-6.466797 c 1.94434,-0.730469 2.92188,-2.363282 2.92188,-4.511719 0,-2.954102 -1.83692,-5.027344 -5.54297,-5.027344 h -5.73633 z m 2.44922,-8.142579 v -5.768554 h 3.00781 c 2.36328,0 3.34082,1.127929 3.34082,2.932617 0,1.793945 -0.97754,2.835937 -3.31934,2.835937 z m 15.45486,-7.863281 h -2.44922 V 26.4 h 2.44922 z m 11.41583,16.220703 c 1.03125,0 1.98731,-0.193359 2.85743,-0.558593 l 1.36425,1.793945 h 2.43848 l -2.1377,-2.803711 c 1.66504,-1.396484 2.68555,-3.673828 2.68555,-6.638672 0,-5.134766 -3.06152,-8.228516 -7.20801,-8.228516 -4.15722,0 -7.22949,3.09375 -7.22949,8.228516 0,5.113281 3.07227,8.207031 7.22949,8.207031 z m -0.78418,-5.381836 2.23438,2.932618 c -0.46191,0.139648 -0.94531,0.214843 -1.4502,0.214843 -2.75,0 -4.80175,-2.105468 -4.80175,-5.972656 0,-3.87793 2.05175,-5.994141 4.80175,-5.994141 2.72852,0 4.78028,2.105469 4.78028,5.994141 0,2.180664 -0.64453,3.791992 -1.69727,4.791016 l -1.51465,-1.965821 z M 464.02695,26.4 h 2.44922 v -6.660157 h 6.78906 v -2.094726 h -6.78906 v -5.145508 h 7.50878 V 10.39414 h -9.958 z m 20.83673,0.214843 c 4.14648,0 7.20801,-3.09375 7.20801,-8.207031 0,-5.134766 -3.06153,-8.228516 -7.20801,-8.228516 -4.15723,0 -7.22949,3.09375 -7.22949,8.228516 0,5.113281 3.07226,8.207031 7.22949,8.207031 z m 0,-2.234375 c -2.75,0 -4.80176,-2.105468 -4.80176,-5.972656 0,-3.87793 2.05176,-5.994141 4.80176,-5.994141 2.72851,0 4.78027,2.105469 4.78027,5.994141 0,3.867188 -2.05176,5.972656 -4.78027,5.972656 z m 17.77517,2.266602 c 3.82422,0 6.35938,-2.384766 6.35938,-5.74707 V 10.39414 h -2.45996 v 10.301758 c 0,2.15918 -1.49317,3.727539 -3.89942,3.727539 -2.41699,0 -3.93164,-1.568359 -3.93164,-3.727539 V 10.39414 H 496.258 V 20.9 c 0,3.362304 2.52441,5.74707 6.38085,5.74707 z M 513.74316,26.4 h 2.48145 v -8.540039 c 0,-0.827149 -0.0859,-2.481446 -0.18262,-4.490235 1.16016,2.148438 1.77246,3.254883 2.55664,4.511719 L 524.00195,26.4 h 2.83594 V 10.39414 h -2.48144 v 9.109375 c 0,0.923828 0.043,2.416992 0.16113,3.963867 -0.70899,-1.536132 -1.42871,-2.75 -1.92285,-3.544921 l -6.02637,-9.528321 h -2.8252 z m 23.04963,0 c 4.86621,0 7.6914,-3.018555 7.6914,-8.024414 0,-4.973633 -2.82519,-7.981446 -7.54101,-7.981446 h -5.36036 V 26.4 Z m -2.76075,-2.148438 V 12.542578 h 2.75 c 3.49121,0 5.2959,2.073242 5.2959,5.833008 0,3.791992 -1.80469,5.875976 -5.4248,5.875976 z M 546.62952,26.4 h 2.65332 l 1.42871,-4.22168 h 6.29492 L 558.47815,26.4 h 2.65332 l -5.80078,-16.00586 h -3.00781 z m 4.78027,-6.262696 0.8916,-2.642578 c 0.39746,-1.224609 0.8916,-2.889648 1.51465,-5.177734 0.63379,2.266601 1.11719,3.899414 1.54688,5.177734 l 0.92382,2.642578 z m 10.53491,-7.637695 h 4.99512 V 26.4 h 2.45996 V 12.499609 h 4.97363 V 10.39414 H 561.9447 Z m 18.8172,-2.105469 h -2.44922 V 26.4 h 2.44922 z m 11.41583,16.220703 c 4.14649,0 7.20801,-3.09375 7.20801,-8.207031 0,-5.134766 -3.06152,-8.228516 -7.20801,-8.228516 -4.15722,0 -7.22949,3.09375 -7.22949,8.228516 0,5.113281 3.07227,8.207031 7.22949,8.207031 z m 0,-2.234375 c -2.75,0 -4.80175,-2.105468 -4.80175,-5.972656 0,-3.87793 2.05175,-5.994141 4.80175,-5.994141 2.72852,0 4.78028,2.105469 4.78028,5.994141 0,3.867188 -2.05176,5.972656 -4.78028,5.972656 z M 603.57208,26.4 h 2.48145 v -8.540039 c 0,-0.827149 -0.0859,-2.481446 -0.18262,-4.490235 1.16016,2.148438 1.77246,3.254883 2.55664,4.511719 L 613.83087,26.4 h 2.83594 V 10.39414 h -2.48145 v 9.109375 c 0,0.923828 0.043,2.416992 0.16114,3.963867 -0.70899,-1.536132 -1.42871,-2.75 -1.92285,-3.544921 l -6.02637,-9.528321 h -2.8252 z" transform="translate(-0.5479 266.2981)" fill="#5F6B6B"/>
</svg>
